{"title":"Petunia 2012 WEBRiP XViD-SSRG","uid":8788492,"size":740377454,"categoryP":"video","categoryS":"movies","magnet":"?xt=urn:btih:87811d826f3762684779330cdcb16485437f388b&amp;dn=Petunia+2012+WEBRiP+XViD-SSRG&amp;tr=udp%3A%2F%2Ftracker.openbittorrent.com%3A80&amp;tr=udp%3A%2F%2Fopen.demonii.com%3A1337&amp;tr=udp%3A%2F%2Ftracker.coppersurfer.tk%3A6969&amp;tr=udp%3A%2F%2Fexodus.desync.com%3A6969","seeders":1,"leechers":0,"uploader":"sC0rp-ET","files":-1,"time":1375883942,"description":"SILVERTORRENT Clean Verified Torrents Download\n \n\n--------------------------------------------------\nGeneral\nComplete name                            : Petunia 2012 WEBRiP XViD-SSRG\nFormat                                   : AVI\nFormat/Info                              : Audio Video Interleave\nFile size                                : 701 MiB\nDuration                                 : 1h 52mn\nOverall bit rate                         : 874 Kbps\nMovie name                               : Petunia 2012 WEBRiP XViD-SSRG\nDirector                                 : sC0rp\n\nVideo\nID                                       : 0\nFormat                                   : MPEG-4 Visual\nFormat profile                           : Advanced Simple@L5\nFormat settings, BVOP                    : 2\nFormat settings, QPel                    : No\nFormat settings, GMC                     : No warppoints\nFormat settings, Matrix                  : Default (H.263)\nMuxing mode                              : Packed bitstream\nCodec ID                                 : XVID\nCodec ID/Hint                            : XviD\nDuration                                 : 1h 52mn\nBit rate                                 : 736 Kbps\nWidth                                    : 640 pixels\nHeight                                   : 272 pixels\nDisplay aspect ratio                     : 2.35:1\nFrame rate                               : 23.976 fps\nColor space                              : YUV\nChroma subsampling                       : 4:2:0\nBit depth                                : 8 bits\nScan type                                : Progressive\nCompression mode                         : Lossy\nBits/(Pixel*Frame)                       : 0.176\nStream size                              : 591 MiB (84%)\nWriting library                          : XviD 1.2.1 (UTC 2008-12-04)\n\nAudio\nID                                       : 1\nFormat                                   : MPEG Audio\nFormat version                           : Version 1\nFormat profile                           : Layer 3\nMode                                     : Joint stereo\nMode extension                           : MS Stereo\nCodec ID                                 : 55\nCodec ID/Hint                            : MP3\nDuration                                 : 1h 52mn\nBit rate mode                            : Constant\nBit rate                                 : 128 Kbps\nChannel(s)                               : 2 channels\nSampling rate                            : 48.0 KHz\nCompression mode                         : Lossy\nStream size                              : 103 MiB (15%)\nAlignment                                : Split accross interleaves\nInterleave, duration                     : 42 ms (1.00 video frame)\nInterleave, preload duration             : 500 ms\nWriting library                          : LAME3.99.5\nLanguage                                 : English\n--------------------------------------------------\n\nScreenshots:  &lt;a href=&quot;\nhttp://s24.postimg.org/7yzb45l3p/Petunia_2012_WEBRi_P_XVi_D_SSRG_avi_snapshot_01_33.jpg&quot; rel=&quot;nofollow&quot; target=&quot;_NEW&quot;&gt;\nhttp://s24.postimg.org/7yzb45l3p/Petunia_2012_WEBRi_P_XVi_D_SSRG_avi_snapshot_01_33.jpg&lt;/a&gt;\n &lt;a href=&quot;\nhttp://s23.postimg.org/f6hl0z8u3/Petunia_2012_WEBRi_P_XVi_D_SSRG_avi_snapshot_01_14.jpg&quot; rel=&quot;nofollow&quot; target=&quot;_NEW&quot;&gt;\nhttp://s23.postimg.org/f6hl0z8u3/Petunia_2012_WEBRi_P_XVi_D_SSRG_avi_snapshot_01_14.jpg&lt;/a&gt;\n &lt;a href=&quot;\nhttp://s24.postimg.org/69q7w35ed/Petunia_2012_WEBRi_P_XVi_D_SSRG_avi_snapshot_01_05.jpg&quot; rel=&quot;nofollow&quot; target=&quot;_NEW&quot;&gt;\nhttp://s24.postimg.org/69q7w35ed/Petunia_2012_WEBRi_P_XVi_D_SSRG_avi_snapshot_01_05.jpg&lt;/a&gt;","torrent":{"xt":"urn:btih:87811d826f3762684779330cdcb16485437f388b","amp;dn":"Petunia+2012+WEBRiP+XViD-SSRG","amp;tr":["udp%3A%2F%2Ftracker.openbittorrent.com%3A80","udp%3A%2F%2Fopen.demonii.com%3A1337","udp%3A%2F%2Ftracker.coppersurfer.tk%3A6969","udp%3A%2F%2Fexodus.desync.com%3A6969"],"infoHash":"87811d826f3762684779330cdcb16485437f388b","infoHashBuffer":{"type":"Buffer","data":[135,129,29,130,111,55,98,104,71,121,51,12,220,177,100,133,67,127,56,139]},"announce":[],"urlList":[]}}